<?xml version="1.0" encoding="UTF-8" standalone="no"?>
<svg
   id="svg"
   width="400"
   height="122.8"
   viewBox="0, 0, 400,122.8"
   version="1.1"
   sodipodi:docname="odourcollect-logo.svg"
   inkscape:version="1.1.2 (b8e25be833, 2022-02-05)"
   xmlns:inkscape="http://www.inkscape.org/namespaces/inkscape"
   xmlns:sodipodi="http://sodipodi.sourceforge.net/DTD/sodipodi-0.dtd"
   xmlns="http://www.w3.org/2000/svg"
   xmlns:svg="http://www.w3.org/2000/svg">
  <defs
     id="defs7" />
  <sodipodi:namedview
     id="namedview5"
     pagecolor="#ffffff"
     bordercolor="#666666"
     borderopacity="1.0"
     inkscape:pageshadow="2"
     inkscape:pageopacity="0.0"
     inkscape:pagecheckerboard="0"
     showgrid="false"
     inkscape:zoom="3.3875"
     inkscape:cx="200"
     inkscape:cy="61.254613"
     inkscape:window-width="2560"
     inkscape:window-height="1351"
     inkscape:window-x="-9"
     inkscape:window-y="-9"
     inkscape:window-maximized="1"
     inkscape:current-layer="svg" />
  <g
     id="svgg"
     style="fill:#009f69;fill-opacity:1">
    <path
       id="path0"
       d="M51.700 0.140 C 32.420 1.892,14.528 14.428,5.797 32.300 C -7.776 60.085,3.003 94.472,29.437 107.719 C 34.437 110.224,44.983 114.415,47.819 115.023 C 58.230 117.255,60.580 102.695,50.311 99.584 C 43.151 97.415,39.815 96.094,36.494 94.112 C 17.309 82.663,10.249 58.580,20.251 38.700 C 32.783 13.790,65.794 8.101,87.095 27.179 C 95.407 34.624,105.357 23.306,97.327 15.541 C 85.824 4.418,68.601 -1.396,51.700 0.140 M165.704 3.423 C 147.416 6.086,137.781 26.181,147.045 42.339 C 158.143 61.696,186.875 58.748,193.896 37.532 C 200.052 18.930,184.922 0.624,165.704 3.423 M274.527 3.413 C 259.036 5.562,249.241 20.312,253.109 35.667 C 259.470 60.920,294.879 62.013,302.759 37.200 C 308.633 18.707,293.638 0.762,274.527 3.413 M204.200 29.194 L 204.200 54.425 214.950 54.347 C 224.990 54.275,225.823 54.242,227.555 53.849 C 239.842 51.066,246.398 42.489,246.398 29.200 C 246.398 15.562,239.526 6.983,226.600 4.482 C 225.205 4.212,223.041 4.136,214.550 4.058 L 204.200 3.964 204.200 29.194 M312.200 20.986 C 312.200 40.725,312.267 41.565,314.151 45.300 C 321.224 59.324,345.007 58.471,350.591 43.993 C 351.947 40.477,351.871 41.714,351.948 21.950 L 352.018 4.000 348.309 4.000 L 344.600 4.000 344.600 21.268 C 344.600 40.578,344.634 40.072,343.155 42.860 C 339.038 50.622,324.565 50.442,320.836 42.582 C 319.578 39.932,319.606 40.419,319.603 21.350 L 319.600 4.000 315.900 4.000 L 312.200 4.000 312.200 20.986 M363.600 29.196 L 363.600 54.400 367.200 54.400 L 370.800 54.400 370.800 44.400 L 370.800 34.400 376.068 34.400 L 381.336 34.400 386.618 44.395 L 391.900 54.389 395.950 54.395 C 398.178 54.398,400.000 54.322,400.000 54.226 C 400.000 53.954,389.025 33.978,388.483 33.263 C 387.882 32.471,387.882 32.472,388.550 32.309 C 389.694 32.031,391.776 30.584,393.151 29.111 C 399.623 22.181,397.655 9.545,389.500 5.675 C 386.442 4.224,384.715 4.053,372.750 4.019 L 363.600 3.992 363.600 29.196 M174.106 10.497 C 183.935 12.990,189.777 23.586,187.109 34.081 C 181.927 54.459,154.354 52.799,151.279 31.924 C 149.248 18.141,160.948 7.159,174.106 10.497 M282.600 10.425 C 293.988 13.224,299.839 26.539,294.603 37.738 C 287.112 53.759,265.087 51.493,260.447 34.224 C 256.637 20.043,268.757 7.023,282.600 10.425 M223.500 10.622 C 232.139 11.680,237.409 16.839,238.700 25.500 C 240.039 34.488,236.707 42.559,230.300 45.841 C 226.733 47.668,224.854 47.984,217.410 48.006 L 211.596 48.023 211.548 29.212 L 211.500 10.400 216.600 10.401 C 219.405 10.401,222.510 10.500,223.500 10.622 M382.169 10.608 C 387.451 11.270,390.249 15.112,389.457 20.615 C 388.583 26.691,385.904 28.196,375.950 28.198 L 370.800 28.200 370.800 19.300 L 370.800 10.400 375.655 10.400 C 378.326 10.400,381.257 10.494,382.169 10.608 M104.340 36.007 C 101.152 36.807,99.125 39.052,98.573 42.397 C 98.256 44.315,98.521 45.523,100.188 49.770 C 104.816 61.559,108.697 74.417,111.878 88.500 C 116.032 106.894,115.971 107.108,106.372 107.612 C 98.548 108.023,89.635 107.684,79.474 106.587 C 76.308 106.245,75.427 106.213,74.374 106.400 C 65.131 108.044,65.557 120.479,74.900 121.785 C 84.720 123.157,111.006 123.099,116.550 121.692 C 123.609 119.902,128.682 113.562,128.946 106.200 C 129.193 99.325,123.089 71.091,117.964 55.400 C 112.468 38.576,109.716 34.659,104.340 36.007 M55.783 44.904 C 46.626 47.128,42.235 58.177,47.381 66.049 C 55.058 77.795,73.048 72.508,73.072 58.500 C 73.088 49.407,64.631 42.756,55.783 44.904 M162.700 76.684 C 149.184 79.287,141.915 94.377,147.373 108.502 C 152.632 122.111,169.933 126.117,181.375 116.374 C 182.269 115.613,183.000 114.905,183.000 114.802 C 183.000 114.662,180.336 110.754,179.880 110.224 C 179.843 110.182,179.324 110.595,178.726 111.142 C 167.848 121.084,152.573 114.577,151.867 99.700 C 151.158 84.774,166.177 76.831,177.775 85.999 C 179.082 87.032,178.881 87.141,180.531 84.503 L 181.962 82.216 181.131 81.451 C 176.896 77.553,168.910 75.487,162.700 76.684 M204.900 76.532 C 181.678 80.195,180.492 115.547,203.400 121.254 C 220.987 125.635,235.418 105.557,227.098 88.283 C 223.136 80.057,213.820 75.125,204.900 76.532 M343.800 76.698 C 329.940 79.478,322.679 95.592,329.003 109.538 C 334.229 121.064,348.268 125.236,359.484 118.596 C 361.127 117.623,364.200 115.147,364.200 114.795 C 364.200 114.654,361.945 111.361,361.068 110.220 C 361.034 110.176,360.577 110.540,360.053 111.030 C 348.998 121.353,332.969 114.120,333.004 98.824 C 333.039 83.664,347.353 77.214,359.925 86.693 C 360.240 86.930,360.090 87.112,361.673 84.576 C 363.260 82.035,363.240 82.241,361.998 81.154 C 357.735 77.425,349.828 75.489,343.800 76.698 M236.800 99.000 L 236.800 121.000 249.100 121.000 L 261.400 121.000 261.400 118.200 L 261.400 115.400 252.100 115.400 L 242.800 115.400 242.800 96.200 L 242.800 77.000 239.800 77.000 L 236.800 77.000 236.800 99.000 M267.000 99.000 L 267.000 121.000 279.300 121.000 L 291.600 121.000 291.600 118.200 L 291.600 115.400 282.300 115.400 L 273.000 115.400 273.000 96.200 L 273.000 77.000 270.000 77.000 L 267.000 77.000 267.000 99.000 M297.133 77.133 C 297.060 77.207,297.000 87.107,297.000 99.133 L 297.000 121.000 309.700 121.000 L 322.400 121.000 322.400 118.200 L 322.400 115.400 312.800 115.400 L 303.200 115.400 303.200 108.500 L 303.200 101.600 310.600 101.600 L 318.000 101.600 318.000 98.800 L 318.000 96.000 310.600 96.000 L 303.200 96.000 303.200 89.300 L 303.200 82.600 312.300 82.600 L 321.400 82.600 321.400 79.800 L 321.400 77.000 309.333 77.000 C 302.697 77.000,297.207 77.060,297.133 77.133 M365.600 79.800 L 365.600 82.600 372.700 82.600 L 379.800 82.600 379.800 101.800 L 379.800 121.000 382.900 121.000 L 386.000 121.000 386.000 101.800 L 386.000 82.600 393.000 82.600 L 400.000 82.600 400.000 79.800 L 400.000 77.000 382.800 77.000 L 365.600 77.000 365.600 79.800 M211.518 82.597 C 228.993 86.985,226.026 115.717,208.100 115.697 C 189.988 115.676,187.314 86.361,205.073 82.499 C 206.943 82.092,209.672 82.134,211.518 82.597 "
       stroke="none"
       fill="#000000"
       fill-rule="evenodd"
       style="fill:#009f69;fill-opacity:1" />
  </g>
</svg>
