<?xml version="1.0" encoding="utf-8"?>
<!-- Generator: Adobe Illustrator 26.2.1, SVG Export Plug-In . SVG Version: 6.00 Build 0)  -->
<svg version="1.1" id="Capa_1" xmlns="http://www.w3.org/2000/svg" xmlns:xlink="http://www.w3.org/1999/xlink" x="0px" y="0px"
	 viewBox="0 0 595.28 841.89" style="enable-background:new 0 0 595.28 841.89;" xml:space="preserve">
<style type="text/css">
	.st0{clip-path:url(#SVGID_00000138546103400291059960000008641469314897937562_);fill:#1D2E52;}
</style>
<g>
	<defs>
		<rect id="SVGID_1_" x="72.6" y="181.77" width="442.12" height="487.97"/>
	</defs>
	<clipPath id="SVGID_00000122715923290296937060000008612395966064717979_">
		<use xlink:href="#SVGID_1_"  style="overflow:visible;"/>
	</clipPath>
	<path style="clip-path:url(#SVGID_00000122715923290296937060000008612395966064717979_);fill:#1D2E52;" d="M153.3,529.72
		c0.16-18.09-13.28-31.92-31.21-32.12c-18.17-0.21-32.46,13.54-32.59,31.37c-0.15,17.92,13.56,32.24,31.07,32.45
		C139.17,561.64,153.15,548.09,153.3,529.72 M434.14,529.62c0.07,17.88,13.94,31.81,31.65,31.8c18.39-0.01,32.21-13.94,32.16-32.39
		c-0.05-17.87-14.22-31.57-32.5-31.43C447.61,497.73,434.07,511.59,434.14,529.62 M153.27,331.43c-0.03-17.99-14.1-31.91-32.2-31.84
		c-17.55,0.07-31.64,14.38-31.57,32.06c0.08,18.04,14.31,32.31,32.03,32.14C139.63,363.6,153.31,349.65,153.27,331.43
		 M434.17,331.74c0.11,18.48,14.44,32.45,32.95,32.14c17.26-0.29,30.97-14.88,30.81-32.78c-0.17-17.81-14.44-31.64-32.5-31.5
		C447.93,299.74,434.05,314.02,434.17,331.74 M294.51,198.47c-18.14,0.06-32.16,14.31-32.05,32.55c0.1,17.22,14.66,31.64,32.07,31.8
		c17.06,0.15,32.42-15.21,32.26-32.28C326.65,212.9,312.05,198.4,294.51,198.47 M262.46,620.84c-0.08,17.99,13.98,32.45,31.62,32.5
		c18.36,0.06,32.66-14.23,32.67-32.64c0.01-16.82-14.57-31.37-31.78-31.7C277.62,588.67,262.54,603.44,262.46,620.84 M129.91,430.69
		h0.03c0,15,0.09,29.99-0.07,44.99c-0.04,3.94,0.96,6.01,5.13,7.16c9.82,2.68,18.24,7.9,24.33,16.25c2.32,3.18,4.43,3.28,7.55,1.28
		c4.96-3.18,10.13-6.05,15.23-8.99c2.74-1.59,5.78-3.16,7.81,0.62c1.86,3.45-0.99,5.23-3.48,6.71c-5.51,3.27-11.06,6.46-16.61,9.63
		c-2.07,1.18-3.46,2.36-2.43,5.17c3.51,9.46,3.55,19.06,1.16,28.83c-0.34,1.39,0.72,4.05,1.92,4.76
		c26.49,15.44,53.09,30.68,79.64,46c2.34,1.36,3.84,1.1,5.52-1.09c8.32-10.79,19.32-17.1,32.76-19.06c3.16-0.46,4.25-1.96,4.1-5.05
		c-0.31-6.39-0.52-12.79-0.57-19.19c-0.02-3.1,0.35-6.57,4.58-6.44c3.84,0.12,4.18,3.4,4.23,6.35c0.1,6.73,0.29,13.48-0.01,20.21
		c-0.15,3.25,0.85,4.31,3.97,4.93c11.54,2.25,20.95,8.28,28.07,17.56c2.31,3.02,4.04,2.98,7.06,1.22
		c25.5-14.8,51.05-29.48,76.67-44.08c2.99-1.7,3.39-3.62,2.48-6.62c-7.04-23.34,7.08-52.59,34.92-59.44
		c3.63-0.89,4.83-2.68,4.82-6.33c-0.1-30.33-0.09-60.66,0-90.99c0.01-3.57-1.05-5.34-4.73-6.37c-27.78-7.72-42.62-34.39-34.29-61.79
		c1.29-4.21,0.13-5.91-3.32-7.88c-26.62-15.2-53.17-30.54-79.67-45.95c-2.82-1.64-4.61-1.62-6.93,0.86
		c-7.22,7.74-16.08,12.74-26.6,14.4c-3.41,0.54-4.44,2.29-4.37,5.5c0.15,5.89,0.06,11.79,0.04,17.69c-0.01,2.9-0.6,5.76-4.16,5.73
		c-3.55-0.02-4.12-2.87-4.14-5.78c-0.03-5.73-0.22-11.47-0.01-17.18c0.13-3.79-1.39-5.33-5.07-6c-10.24-1.89-19.09-6.63-26.13-14.31
		c-2.34-2.55-4.13-2.58-6.89-0.97c-27.57,15.92-55.17,31.78-82.81,47.58c-2.55,1.46-2.98,3.02-2.04,5.76
		c3.46,10.22,3.72,20.54-0.11,30.7c-1.41,3.73-0.24,5.48,3,7.14c5.1,2.59,10.01,5.57,14.96,8.44c2.55,1.47,5.35,3.18,3.32,6.67
		c-1.94,3.31-4.88,2.19-7.53,0.72c-5-2.79-10.05-5.52-14.9-8.55c-3.05-1.91-4.99-2.09-7.51,1.16c-6.03,7.82-14.07,13.12-23.62,15.6
		c-4.37,1.14-5.43,3.32-5.38,7.46C130.02,400.7,129.91,415.69,129.91,430.69 M246.06,618.29c2.92-6.83-2.13-9.92-8.19-13.33
		c-24.83-13.93-49.46-28.21-74.07-42.52c-3.2-1.86-5.01-1.61-7.68,1.14c-13.97,14.35-34.97,18.41-53.62,10.75
		c-17.43-7.15-29.63-25.29-29.89-44.47c-0.3-21.21,14.1-40.88,34.81-46.95c4.24-1.24,5.53-3.17,5.51-7.4
		c-0.13-29.83-0.12-59.66,0.03-89.49c0.02-4.31-1.07-6.42-5.59-7.83c-22.86-7.17-35.04-26.43-34.64-47.5
		c0.46-23.55,16.75-42.6,39.43-46.8c15.59-2.88,29.86,0.64,41.71,11.64c2.55,2.37,4.45,2.64,7.46,0.91
		c27.7-16.04,55.45-31.97,83.26-47.85c2.82-1.62,3.42-3.35,2.7-6.54c-5.49-24.36,6.65-47.69,29.32-56.77
		c22.37-8.95,47.29-0.45,59.98,20.81c6.59,11.02,8.38,23.05,5.35,35.57c-0.88,3.63,0.12,5.52,3.27,7.32
		c27.35,15.63,54.64,31.35,81.89,47.17c2.67,1.55,4.28,1.24,6.6-0.74c15.36-13.2,32.8-16.25,51.33-8.4
		c19.46,8.24,29.18,23.94,29.69,44.86c0.51,20.6-13.61,39.52-33.83,46.08c-3.93,1.27-5.29,3.04-5.27,7.1
		c0.15,30.5,0.12,61,0.04,91.5c-0.01,3.58,1.11,5.3,4.71,6.45c21.08,6.7,35.01,26.05,34.33,47.21
		c-0.74,22.98-15.77,41.87-38.28,46.74c-16.91,3.66-32.16-0.61-44.53-13.04c-2.79-2.8-4.76-2.67-7.79-0.9
		c-26.08,15.14-52.21,30.2-78.37,45.2c-2.54,1.46-3.62,3.12-3.08,6.11c4.47,24.6-13.97,53.27-43.47,55.27
		C268.25,671.69,245.45,649.7,246.06,618.29"/>
	<path style="clip-path:url(#SVGID_00000122715923290296937060000008612395966064717979_);fill:#1D2E52;" d="M294.47,210.58
		c-11.04-0.04-19.88,8.7-19.9,19.7c-0.02,11.59,8.6,20.53,19.78,20.52c10.86-0.02,20.28-9.36,20.44-20.25
		C314.94,219.41,306.02,210.62,294.47,210.58"/>
	<path style="clip-path:url(#SVGID_00000122715923290296937060000008612395966064717979_);fill:#1D2E52;" d="M299.11,474.26v0.02
		c15.66,0,31.32,0.17,46.98-0.05c13-0.19,23.55-10.5,24.27-23.19c0.73-13.05-8.69-24.36-21.68-26.05c-8.38-1.09-8.38-1.09-8.49-9.7
		c-0.28-21.47-14.8-37.41-36.87-40.49c-18.85-2.62-38.43,10.66-43.48,30.1c-1.36,5.21-4.26,6.48-8.85,6.93
		c-17.45,1.72-28.73,15.51-27.93,33.92c0.66,15.37,14.45,28.32,30.59,28.48C268.8,474.38,283.96,474.26,299.11,474.26
		 M352.09,391.53c7.84-4.56,15.37-9.24,23.23-13.31c1.56-0.81,5.34-1.03,6.54,1.18c0,0,1.35,3.19-2.53,5.73
		c-7.66,5.02-15.78,9.33-24.23,14.22c0.34,5.3,2.24,9.95,9.33,13.31c21.12,10.02,28.78,35.57,17.9,56.47
		c-1.12,2.16-2.28,3.93-0.3,6.36c0.67,0.83,0.51,3.25-0.23,4.08c-0.92,1.03-2.82,1.24-4.35,1.65c-2.2,0.57-4.95,0.34-6.6,1.59
		c-8.67,6.54-18.6,8.59-29.04,8.64c-28.14,0.15-56.27,0.15-84.41,0.03c-12.25-0.05-23.6-3.08-33.55-10.75
		c-1.38-1.06-4.43-1.05-6.16-0.3c-3.85,1.66-7.19,4.47-11.04,6.05c-1.66,0.68-5.21,0.78-6.18-0.9c1.04,1.81-3.37-3.13,2.05-5.85
		c2.95-1.48,5.53-3.84,8.54-5.34c3.37-1.67,3.64-3.38,1.73-6.67c-11.98-20.58-8.78-44.37,8.99-60.17
		c5.95-5.29,14.1-8.07,21.09-12.24c1.69-1.01,3.18-2.81,4.09-4.58c8.57-16.84,22.02-27.59,40.38-31.58
		c25.74-5.58,50.99,6.57,63.34,29.89C351.25,390.03,351.82,391.04,352.09,391.53"/>
	<path style="clip-path:url(#SVGID_00000122715923290296937060000008612395966064717979_);fill:#1D2E52;" d="M300.84,515.61
		c0,3.02,0.29,6.19-0.45,9.03c-0.51,1.96-2.09,5.35-4.26,5.19c2.14,0.16-3.77,1.1-4.07-4.84c-0.37-7.53-0.14-14.76-0.09-22.64
		c0.01-2.36,1.32-4.98,4.13-4.66c2.07,0.24,3.44,3.09,3.76,4.89C300.66,506.84,300.57,511.26,300.84,515.61
		c-0.08,0-0.18,0.01-0.26,0.01"/>
	<path style="clip-path:url(#SVGID_00000122715923290296937060000008612395966064717979_);fill:#1D2E52;" d="M396.84,374.67
		c-2.73,1-4.17-1.01-4.5-2.12c-0.41-1.36-0.19-3.92,0.71-4.49c7.36-4.68,14.88-9.15,22.56-13.31c0.89-0.49,3.56,0.93,4.4,2.15
		c0.64,0.93,0.22,3.82-0.65,4.37C411.96,365.94,404.38,370.26,396.84,374.67c-0.27,0.17-0.65,0.11-1.72,0.26"/>
	<path style="clip-path:url(#SVGID_00000122715923290296937060000008612395966064717979_);fill:#1D2E52;" d="M228.16,388.86
		c-0.77,3.88-2.88,5.69-5.86,4.16c-7.3-3.76-14.44-7.89-21.39-12.27c-1.13-0.71-1.65-4.09-1.24-4.99c1.31-2.87,4.1-2.24,5.41-1.59
		c7.04,3.54,13.86,7.53,20.64,11.57C227.72,386.94,228.2,387.67,228.16,388.86"/>
	<path style="clip-path:url(#SVGID_00000122715923290296937060000008612395966064717979_);fill:#1D2E52;" d="M397.93,483.75
		c1.68,0.65,1.19,0.35,2.2,0.91c6.03,3.34,12.02,6.71,17.99,10.13c2.55,1.45,4.47,3.49,2.69,6.54c-1.8,3.09-4.47,2.23-7.01,0.78
		c-6.26-3.59-12.64-6.98-18.7-10.89c-1.38-0.89-2.95-3.73-2.14-5.4C394.57,482.51,396.72,483.58,397.93,483.75"/>
	<path style="clip-path:url(#SVGID_00000122715923290296937060000008612395966064717979_);fill:#1D2E52;" d="M298.95,335.88
		c0,3.85-0.04,7.72-0.18,11.52c-0.16,4.44-3.72,4.49-3.72,4.49c-2.37-0.11-3.94-2.75-4.01-4.23c-0.43-8.01-0.45-16.06-0.06-24.07
		c0.06-1.36-0.53-3.71,4.32-3.59c2.34,0.06,3.23,2.35,3.41,3.85c0.49,3.95,0.17,8.02,0.17,12.03
		C298.9,335.88,298.93,335.88,298.95,335.88"/>
	<path style="clip-path:url(#SVGID_00000122715923290296937060000008612395966064717979_);fill:#1D2E52;" d="M294.47,641.23
		c-11.08,0.06-19.86-8.65-19.88-19.71c-0.02-11.62,8.35-20.3,19.76-20.48c10.67-0.18,20.51,9.55,20.43,20.2
		C314.69,632.66,306.06,641.16,294.47,641.23"/>
	<path style="clip-path:url(#SVGID_00000122715923290296937060000008612395966064717979_);fill:#1D2E52;" d="M294.47,210.58
		c11.54,0.04,20.47,8.83,20.32,19.97c-0.16,10.89-9.58,20.23-20.44,20.25c-11.18,0.01-19.8-8.93-19.78-20.52
		C274.59,219.28,283.43,210.54,294.47,210.58"/>
	<path style="clip-path:url(#SVGID_00000122715923290296937060000008612395966064717979_);fill:#1D2E52;" d="M485.78,332.07
		c-0.06,11.23-8.74,19.9-19.83,19.82c-10.97-0.08-20.18-9.34-20.28-20.39c-0.09-11.15,8.91-19.82,20.54-19.78
		C477.89,311.76,485.85,320.03,485.78,332.07"/>
	<path style="clip-path:url(#SVGID_00000122715923290296937060000008612395966064717979_);fill:#1D2E52;" d="M121.22,311.72
		c11.5-0.05,20.68,8.78,20.56,19.8c-0.11,11.04-9.32,20.28-20.3,20.38c-11.07,0.08-19.76-8.61-19.82-19.82
		C101.61,320.02,109.52,311.77,121.22,311.72"/>
	<path style="clip-path:url(#SVGID_00000122715923290296937060000008612395966064717979_);fill:#1D2E52;" d="M485.79,529.39
		c-0.01,11.93-7.94,19.85-19.88,19.86c-11.36,0-20.04-8.36-20.23-19.51c-0.2-10.94,9.73-20.86,20.65-20.62
		C477.49,509.37,485.8,518.02,485.79,529.39"/>
	<path style="clip-path:url(#SVGID_00000122715923290296937060000008612395966064717979_);fill:#1D2E52;" d="M121.33,549.25
		c-11.79,0.02-19.69-8.04-19.66-20.07c0.02-11.27,8.64-20.07,19.66-20.08c10.84,0,20.39,9.5,20.45,20.34
		C141.86,540.66,133,549.23,121.33,549.25"/>
</g>
</svg>
